<svg width="40" height="46" viewBox="0 0 40 46" fill="none" xmlns="http://www.w3.org/2000/svg">
<path d="M38.0854 9.45273H1.90321C1.03718 9.45273 0.328613 10.1613 0.328613 11.0273C0.328613 11.8933 1.03718 12.6019 1.90321 12.6019H4.61379V39.5952C4.61379 42.8456 7.25687 45.4999 10.5073 45.4999H29.4926C32.743 45.4999 35.3861 42.8569 35.3861 39.5952V12.6019H38.0966C38.9739 12.6019 39.6713 11.8933 39.6713 11.0273C39.6713 10.1613 38.9627 9.45273 38.0966 9.45273H38.0854ZM14.9949 36.2098C14.9949 37.087 14.2864 37.7844 13.4316 37.7844C12.5768 37.7844 11.857 37.0758 11.857 36.2098V16.4934C11.857 15.6274 12.5655 14.9301 13.4316 14.9301C14.2976 14.9301 14.9949 15.6386 14.9949 16.4934V36.2098ZM21.5633 36.2098C21.5633 37.087 20.8547 37.7844 19.9887 37.7844C19.1227 37.7844 18.4141 37.0758 18.4141 36.2098V16.4934C18.4141 15.6274 19.1227 14.9301 19.9887 14.9301C20.8547 14.9301 21.5633 15.6386 21.5633 16.4934V36.2098ZM28.1204 36.2098C28.1204 37.087 27.4118 37.7844 26.5458 37.7844C25.6798 37.7844 24.9824 37.0758 24.9824 36.2098V16.4934C24.9824 15.6274 25.691 14.9301 26.5458 14.9301C27.4006 14.9301 28.1204 15.6386 28.1204 16.4934V36.2098Z" fill="#5BBA47"/>
<path d="M28.1092 8.19311C27.558 8.19311 27.0182 7.90063 26.7258 7.37201L24.69 3.66046H15.2761L13.2404 7.37201C12.8242 8.13682 11.8682 8.41799 11.1034 7.9906C10.3386 7.57445 10.0687 6.61848 10.4848 5.85367L12.9704 1.32102C13.2516 0.814899 13.769 0.5 14.3426 0.5H25.6235C26.1971 0.5 26.7257 0.814899 26.9957 1.32102L29.4813 5.85367C29.8975 6.61848 29.6163 7.57445 28.8627 7.9906C28.6265 8.12556 28.3678 8.18185 28.1092 8.18185V8.19311Z" fill="#5BBA47"/>
</svg>
