<svg width="46" height="46" viewBox="0 0 46 46" fill="none" xmlns="http://www.w3.org/2000/svg">
<path d="M33.0234 1.93124L28.2402 6.72568L37.8404 16.3258L42.6235 11.5427C44.609 9.55723 44.6203 6.33084 42.6235 4.3341L40.232 1.94253C38.2352 -0.0542085 35.0089 -0.0542085 33.0121 1.94253L33.0234 1.93124Z" fill="#5BBA47"/>
<path d="M45.5 44.032C45.5 44.8668 44.8231 45.555 43.9771 45.555H2.02295C1.17687 45.555 0.5 44.8668 0.5 44.032C0.5 43.7274 0.59025 43.4341 0.748184 43.1972V43.1746L6.03899 28.9268L26.1418 8.82394L35.7419 18.4241L15.6391 38.5268L4.65143 42.4978H43.9658C44.8119 42.4978 45.4887 43.1859 45.4887 44.032H45.5Z" fill="#5BBA47"/>
</svg>
